HIERARCHY
ROOT joint_Root
{
	OFFSET 0.0 0.0 0.0
	CHANNELS 6 Xposition Yposition Zposition Zrotation Xrotation Yrotation 
	JOINT Hips
	{
		OFFSET -17.1583 93.1646 452.98
		CHANNELS 6 Xposition Yposition Zposition Zrotation Xrotation Yrotation 
		JOINT Spine
		{
			OFFSET 15.7357 0.0 0.0
			CHANNELS 6 Xposition Yposition Zposition Zrotation Xrotation Yrotation 
			JOINT Chest
			{
				OFFSET 8.98455 -0.406207 0.0
				CHANNELS 6 Xposition Yposition Zposition Zrotation Xrotation Yrotation 
				JOINT Neck
				{
					OFFSET 16.3773 0.0 0.0
					CHANNELS 6 Xposition Yposition Zposition Zrotation Xrotation Yrotation 
					JOINT Head
					{
						OFFSET 6.45672 0.0 0.0
						CHANNELS 6 Xposition Yposition Zposition Zrotation Xrotation Yrotation 
						End Site
						{
							OFFSET 0.0 0.0 0.0
						}
					}
				}
				JOINT Shoulder_L
				{
					OFFSET 12.9942 -0.242716 4.98039
					CHANNELS 6 Xposition Yposition Zposition Zrotation Xrotation Yrotation 
					JOINT UpperArm_L
					{
						OFFSET 5.34809 0.0 0.0
						CHANNELS 6 Xposition Yposition Zposition Zrotation Xrotation Yrotation 
						JOINT LowerArm_L
						{
							OFFSET 24.3286 1.87007e-05 0.0
							CHANNELS 6 Xposition Yposition Zposition Zrotation Xrotation Yrotation 
							JOINT Hand_L
							{
								OFFSET 22.2916 0.0 0.0
								CHANNELS 6 Xposition Yposition Zposition Zrotation Xrotation Yrotation 
								End Site
								{
									OFFSET 0.0 0.0 0.0
								}
							}
						}
					}
				}
				JOINT Shoulder_R
				{
					OFFSET 12.9945 -0.242716 -4.98039
					CHANNELS 6 Xposition Yposition Zposition Zrotation Xrotation Yrotation 
					JOINT UpperArm_R
					{
						OFFSET -5.34813 0.0 0.0
						CHANNELS 6 Xposition Yposition Zposition Zrotation Xrotation Yrotation 
						JOINT LowerArm_R
						{
							OFFSET -24.3289 0.000322201 0.0
							CHANNELS 6 Xposition Yposition Zposition Zrotation Xrotation Yrotation 
							JOINT Hand_R
							{
								OFFSET -22.2915 -0.000108084 0.0
								CHANNELS 6 Xposition Yposition Zposition Zrotation Xrotation Yrotation 
								End Site
								{
									OFFSET 0.0 0.0 0.0
								}
							}
						}
					}
				}
			}
		}
		JOINT UpperLeg_L
		{
			OFFSET -2.19248 -6.46944 0.0
			CHANNELS 6 Xposition Yposition Zposition Zrotation Xrotation Yrotation 
			JOINT LowerLeg_L
			{
				OFFSET 39.0811 0.0 -1.23785e-05
				CHANNELS 6 Xposition Yposition Zposition Zrotation Xrotation Yrotation 
				JOINT Foot_L
				{
					OFFSET 40.9854 0.0 -1.26872e-05
					CHANNELS 6 Xposition Yposition Zposition Zrotation Xrotation Yrotation 
					JOINT Toes_L
					{
						OFFSET 11.7543 0.0 0.0
						CHANNELS 6 Xposition Yposition Zposition Zrotation Xrotation Yrotation 
						End Site
						{
							OFFSET 0.0 0.0 0.0
						}
					}
				}
			}
		}
		JOINT UpperLeg_R
		{
			OFFSET -2.19251 6.46944 0.0
			CHANNELS 6 Xposition Yposition Zposition Zrotation Xrotation Yrotation 
			JOINT LowerLeg_R
			{
				OFFSET -39.0811 -0.00228153 -0.0401928
				CHANNELS 6 Xposition Yposition Zposition Zrotation Xrotation Yrotation 
				JOINT Foot_R
				{
					OFFSET -40.9854 0.0 0.0
					CHANNELS 6 Xposition Yposition Zposition Zrotation Xrotation Yrotation 
					JOINT Toes_R
					{
						OFFSET -11.7543 0.0 0.0
						CHANNELS 6 Xposition Yposition Zposition Zrotation Xrotation Yrotation 
						End Site
						{
							OFFSET 0.0 0.0 0.0
						}
					}
				}
			}
		}
	}
}
MOTION
Frames:	6
Frame Time:	0.0333333
0.000000 0.000000 0.000000 0.000000 0.000000 -0.000000 95.924500 87.846500 232.438000 -87.159500 72.300000 176.380000 15.735700 0.000005 -0.000001 133.104000 86.607300 -132.645000 8.984550 -0.406207 -0.000000 -2.834140 4.592440 1.031500 16.377300 -0.000001 -0.000001 4.326130 14.327600 3.454410 6.456720 -0.000001 -0.000000 -2.446080 20.716200 4.761560 12.994200 -0.242716 4.980390 -92.998000 6.691930 -65.800100 5.348090 -0.000007 -0.000001 -48.909900 -23.999400 18.413200 24.328600 0.000019 0.000005 0.035936 0.569316 -3.517170 22.291600 -0.000001 0.000005 14.004900 4.518930 16.265000 12.994500 -0.242716 -4.980390 88.194300 5.471600 -71.705000 -5.348130 -0.000001 -0.000004 -61.114600 7.718360 -13.775900 -24.328900 0.000322 -0.000009 -0.191283 -0.326132 -30.271100 -22.291500 -0.000108 -0.000004 8.926810 5.387770 -2.536720 -2.192480 -6.469440 -0.000000 166.545000 -2.078370 -26.641200 39.081100 -0.000007 -0.000012 0.435509 -0.657975 33.501300 40.985400 -0.000006 -0.000013 14.664000 -2.385980 -63.019500 11.754300 -0.000000 0.000003 0.002390 0.100371 -12.506400 -2.192510 6.469440 -0.000001 168.706000 6.464490 174.866000 -39.081100 -0.002282 -0.040193 0.447347 -0.311819 54.927700 -40.985400 0.000008 0.000006 -16.649100 6.932790 -14.329200 -11.754300 -0.000006 -0.000006 0.000648 0.155949 -10.248600
0.000000 0.000000 0.000000 0.000000 0.000000 -0.000000 99.613700 88.514000 230.316000 -88.736000 70.381200 178.750000 15.735700 0.000005 -0.000001 126.868000 86.899400 -126.199000 8.984550 -0.406207 -0.000000 -2.828460 3.657350 1.429220 16.377300 -0.000001 -0.000001 6.194730 14.801200 1.156520 6.456720 -0.000001 -0.000000 0.166903 20.965600 3.557940 12.994200 -0.242716 4.980390 -93.729500 8.010340 -64.931400 5.348090 -0.000007 -0.000001 -56.641400 -17.300100 11.798400 24.328600 0.000019 0.000005 1.093260 8.874580 -7.028160 22.291600 -0.000001 0.000005 2.483770 4.689710 13.283900 12.994500 -0.242716 -4.980390 87.986100 6.149510 -71.827000 -5.348130 -0.000001 -0.000004 -60.556400 8.878060 -11.204900 -24.328900 0.000322 -0.000009 0.397473 1.256090 -17.721600 -22.291500 -0.000108 -0.000004 4.480330 5.322360 -0.541035 -2.192480 -6.469440 -0.000000 165.569000 -2.378580 -21.199500 39.081100 -0.000007 -0.000012 0.434498 -0.716600 31.230900 40.985400 -0.000006 -0.000013 15.480900 -0.965378 -65.051800 11.754300 -0.000000 0.000003 0.002159 0.114273 -11.942800 -2.192510 6.469440 -0.000001 167.223000 5.134710 169.184000 -39.081100 -0.002282 -0.040193 0.495407 -0.264603 61.739400 -40.985400 0.000008 0.000006 -17.298400 7.500080 -21.097600 -11.754300 -0.000006 -0.000006 0.000838 0.152126 -10.403800
0.000000 0.000000 0.000000 0.000000 0.000000 -0.000000 103.208000 89.445600 228.580000 -86.798900 66.357900 178.146000 15.735700 0.000005 -0.000001 115.712000 87.097100 -114.397000 8.984550 -0.406207 -0.000000 -2.562250 2.399480 2.683880 16.377300 -0.000001 -0.000001 7.542480 14.742000 -0.943580 6.456720 -0.000001 -0.000000 2.904960 21.128100 3.262380 12.994200 -0.242716 4.980390 -93.975400 8.702170 -65.329500 5.348090 -0.000007 -0.000001 -63.791800 -5.867250 6.381280 24.328600 0.000019 0.000005 5.906780 21.839200 -15.517600 22.291600 -0.000001 0.000005 -8.315170 5.032030 6.518180 12.994500 -0.242716 -4.980390 87.916700 6.330130 -71.741300 -5.348130 -0.000001 -0.000004 -60.766700 7.620080 -6.861000 -24.328900 0.000322 -0.000009 0.845592 6.325380 -7.661590 -22.291500 -0.000108 -0.000004 -0.406126 5.194180 2.885720 -2.192480 -6.469440 -0.000000 166.402000 -1.884340 -14.479200 39.081100 -0.000007 -0.000012 0.353360 -0.680896 27.428500 40.985400 -0.000006 -0.000013 16.192700 1.724510 -66.445500 11.754300 -0.000000 0.000003 0.001940 0.123129 -11.583700 -2.192510 6.469440 -0.000001 167.719000 5.242300 165.246000 -39.081100 -0.002282 -0.040193 0.484058 -0.228057 64.628400 -40.985400 0.000008 0.000006 -16.364300 6.114540 -30.811900 -11.754300 -0.000006 -0.000006 0.000588 0.157100 -10.201900
0.000000 0.000000 0.000000 0.000000 0.000000 -0.000000 106.598000 90.439900 227.139000 -83.974000 61.143100 176.245000 15.735700 0.000005 -0.000001 102.799000 87.258600 -100.651000 8.984550 -0.406207 -0.000000 -2.435130 1.023120 4.317030 16.377300 -0.000001 -0.000001 8.326010 14.255500 -2.053340 6.456720 -0.000001 -0.000000 4.924870 21.110800 2.625970 12.994200 -0.242716 4.980390 -93.747300 8.724340 -66.645200 5.348090 -0.000007 -0.000001 -68.623100 5.352580 2.450520 24.328600 0.000019 0.000005 18.294300 33.824900 -30.700500 22.291600 -0.000001 0.000005 -11.553500 5.437620 -4.198740 12.994500 -0.242716 -4.980390 88.037200 5.773160 -71.185600 -5.348130 -0.000001 -0.000004 -61.710700 5.656540 -1.528860 -24.328900 0.000322 -0.000009 0.155607 11.383200 -0.799831 -22.291500 -0.000108 -0.000004 -3.245500 5.049950 6.241390 -2.192480 -6.469440 -0.000000 168.382000 0.898327 -8.020210 39.081100 -0.000007 -0.000012 0.241141 -0.577409 22.667100 40.985400 -0.000006 -0.000013 16.367800 4.051100 -66.917700 11.754300 -0.000000 0.000003 0.001657 0.132247 -11.213800 -2.192510 6.469440 -0.000001 169.543000 5.026650 162.030000 -39.081100 -0.002282 -0.040193 0.431810 -0.212192 63.663100 -40.985400 0.000008 0.000006 -16.015400 0.560123 -40.423400 -11.754300 -0.000006 -0.000006 0.000387 0.160872 -10.048800
0.000000 0.000000 0.000000 0.000000 0.000000 -0.000000 109.850000 91.401300 225.891000 -81.844200 55.641700 174.840000 15.735700 0.000005 -0.000001 86.514200 87.123300 -83.568000 8.984550 -0.406207 -0.000000 -2.000990 -0.600652 5.881130 16.377300 -0.000001 -0.000001 8.220270 13.811700 -2.536150 6.456720 -0.000001 -0.000000 6.078090 21.119500 1.965900 12.994200 -0.242716 4.980390 -93.365700 8.378540 -68.020900 5.348090 -0.000007 -0.000001 -71.450800 12.140400 -0.921154 24.328600 0.000019 0.000005 25.646600 30.455400 -43.452000 22.291600 -0.000001 0.000005 -8.479300 5.471570 -5.463620 12.994500 -0.242716 -4.980390 88.267400 4.925840 -70.594200 -5.348130 -0.000001 -0.000004 -62.937000 2.610440 3.584420 -24.328900 0.000322 -0.000009 -0.001251 15.825400 0.000069 -22.291500 -0.000108 -0.000004 -3.898660 4.937360 8.624030 -2.192480 -6.469440 -0.000000 170.644000 4.554070 -1.560890 39.081100 -0.000007 -0.000012 0.115923 -0.387565 16.652400 40.985400 -0.000006 -0.000013 15.792300 6.342060 -66.350000 11.754300 -0.000000 0.000003 0.001626 0.133134 -11.177900 -2.192510 6.469440 -0.000001 171.861000 4.164460 159.898000 -39.081100 -0.002282 -0.040193 0.264917 -0.155308 59.314000 -40.985400 0.000008 0.000006 -12.471100 -6.562730 -50.872400 -11.754300 -0.000006 -0.000006 0.000217 0.163931 -9.924550
0.000000 0.000000 0.000000 0.000000 0.000000 -0.000000 113.020000 92.167900 224.745000 -81.199000 50.124700 174.798000 15.735700 0.000005 -0.000001 69.903300 86.487300 -66.519800 8.984550 -0.406207 -0.000000 -1.080540 -2.674420 6.740160 16.377300 -0.000001 -0.000001 7.433450 13.518700 -2.422580 6.456720 -0.000001 -0.000000 6.058480 21.334600 1.417320 12.994200 -0.242716 4.980390 -93.084600 8.103570 -69.078700 5.348090 -0.000007 -0.000001 -72.447100 14.818000 -3.989060 24.328600 0.000019 0.000005 26.117700 21.822700 -52.836600 22.291600 -0.000001 0.000005 -4.038380 5.304710 -0.101196 12.994500 -0.242716 -4.980390 88.383800 4.471050 -70.102700 -5.348130 -0.000001 -0.000004 -63.983400 -0.029704 8.666870 -24.328900 0.000322 -0.000009 -0.000870 19.230000 0.000087 -22.291500 -0.000108 -0.000004 -4.315630 4.873120 9.909700 -2.192480 -6.469440 -0.000000 173.057000 7.608130 3.220640 39.081100 -0.000007 -0.000012 0.017210 -0.077785 12.476200 40.985400 -0.000006 -0.000013 9.684250 10.091100 -63.782800 11.754300 -0.000000 0.000003 0.002364 0.102472 -12.421300 -2.192510 6.469440 -0.000001 173.352000 3.148960 159.293000 -39.081100 -0.002282 -0.040193 0.110993 -0.086712 51.174400 -40.985400 0.000008 0.000006 -7.733540 -15.751900 -58.427100 -11.754300 -0.000006 -0.000006 0.000294 0.162560 -9.980230
